<svg xmlns="http://www.w3.org/2000/svg" height="20" width="20" viewBox="0 0 512 512"><!--!Font Awesome Free 6.6.0 by @fontawesome - https://fontawesome.com License - https://fontawesome.com/license/free Copyright 2024 Fonticons, Inc.--><path fill="#235fc7" d="M512 288.9c-.5 17.4-15.2 31.1-32.7 31.1H424v16c0 21.9-4.9 42.6-13.6 61.1l60.2 60.2c12.5 12.5 12.5 32.8 0 45.3-12.5 12.5-32.8 12.5-45.3 0l-54.7-54.7C345.9 468 314.4 480 280 480V236c0-6.6-5.4-12-12-12h-24c-6.6 0-12 5.4-12 12v244c-34.4 0-65.9-12-90.6-32.1l-54.7 54.7c-12.5 12.5-32.8 12.5-45.3 0-12.5-12.5-12.5-32.8 0-45.3l60.2-60.2C92.9 378.6 88 357.9 88 336v-16H32.7C15.2 320 .5 306.3 0 288.9-.5 270.8 14 256 32 256h56v-58.7l-46.6-46.6c-12.5-12.5-12.5-32.8 0-45.3 12.5-12.5 32.8-12.5 45.3 0L141.3 160h229.5l54.6-54.6c12.5-12.5 32.8-12.5 45.3 0 12.5 12.5 12.5 32.8 0 45.3L424 197.3V256h56c18 0 32.5 14.8 32 32.9zM257 0c-61.9 0-112 50.1-112 112h224C369 50.1 318.9 0 257 0z"/></svg>