<svg xmlns="http://www.w3.org/2000/svg" xmlns:xlink="http://www.w3.org/1999/xlink" width="500" zoomAndPan="magnify" viewBox="0 0 375 374.999991" height="500" preserveAspectRatio="xMidYMid meet" version="1.0"><defs><clipPath id="60e3ba2b71"><path d="M 0 37.5 L 375 37.5 L 375 324 L 0 324 Z M 0 37.5 " clip-rule="nonzero"/></clipPath></defs><g clip-path="url(#60e3ba2b71)"><path fill="#de0f3f" d="M 70.226562 228.359375 L 78.90625 228.359375 C 82.652344 228.359375 85.613281 231.515625 85.613281 235.066406 C 85.613281 238.8125 82.457031 241.773438 78.90625 241.773438 L 70.226562 241.773438 C 66.476562 241.773438 63.519531 238.617188 63.519531 235.066406 C 63.320312 231.515625 66.476562 228.359375 70.226562 228.359375 Z M 255.261719 323.636719 C 254.078125 323.636719 253.089844 323.636719 251.90625 323.636719 C 251.710938 323.636719 251.511719 323.636719 251.316406 323.636719 L 170.4375 323.636719 C 166.6875 323.636719 163.730469 320.480469 163.730469 316.929688 C 163.730469 313.183594 166.886719 310.222656 170.4375 310.222656 L 204.367188 310.222656 C 208.113281 310.222656 211.074219 307.066406 211.074219 303.515625 C 211.074219 299.769531 208.113281 296.808594 204.367188 296.808594 L 134.929688 296.808594 C 131.179688 296.808594 128.222656 293.652344 128.222656 290.101562 C 128.222656 286.355469 131.378906 283.394531 134.929688 283.394531 L 151.300781 283.394531 C 155.050781 283.394531 158.007812 280.238281 158.007812 276.6875 C 158.007812 272.941406 154.851562 269.980469 151.300781 269.980469 L 112.046875 269.980469 C 108.296875 269.980469 105.339844 266.824219 105.339844 263.273438 C 105.339844 259.527344 108.496094 256.566406 112.046875 256.566406 L 130.390625 256.566406 C 134.140625 256.566406 137.097656 253.410156 137.097656 249.859375 C 137.097656 246.113281 133.941406 243.152344 130.390625 243.152344 L 101.984375 243.152344 C 98.238281 243.152344 95.277344 239.996094 95.277344 236.445312 C 95.277344 232.699219 98.433594 229.738281 101.984375 229.738281 L 154.851562 229.738281 C 158.601562 229.738281 161.558594 226.582031 161.558594 223.03125 C 161.558594 219.285156 158.402344 216.324219 154.851562 216.324219 L 86.402344 216.324219 C 82.652344 216.324219 79.695312 213.167969 79.695312 209.617188 C 79.695312 205.871094 82.851562 202.910156 86.402344 202.910156 L 109.679688 202.910156 C 113.425781 202.910156 116.386719 199.753906 116.386719 196.203125 C 116.386719 192.457031 113.425781 189.496094 109.679688 189.496094 L 85.019531 189.496094 C 81.273438 189.496094 78.3125 186.339844 78.3125 182.792969 C 78.3125 179.042969 81.46875 176.085938 85.019531 176.085938 L 110.269531 176.085938 C 114.019531 176.085938 116.976562 172.929688 116.976562 169.378906 C 116.976562 165.628906 113.820312 162.671875 110.269531 162.671875 L 98.039062 162.671875 C 94.292969 162.671875 91.332031 159.515625 91.332031 155.964844 C 91.332031 152.214844 94.488281 149.257812 98.039062 149.257812 L 137.691406 149.257812 C 141.4375 149.257812 144.398438 146.101562 144.398438 142.550781 C 144.398438 138.800781 141.242188 135.84375 137.691406 135.84375 L 84.230469 135.84375 C 80.484375 135.84375 77.523438 132.6875 77.523438 129.136719 C 77.523438 125.386719 80.679688 122.429688 84.230469 122.429688 L 128.417969 122.429688 C 132.167969 122.429688 135.125 119.273438 135.125 115.722656 C 135.125 112.367188 132.757812 109.605469 129.40625 109.015625 L 126.445312 109.015625 C 122.699219 109.015625 119.738281 105.859375 119.738281 102.308594 C 119.738281 98.558594 122.894531 95.601562 126.445312 95.601562 L 158.402344 95.601562 C 161.363281 94.8125 163.53125 92.246094 163.53125 89.089844 C 163.53125 85.738281 161.164062 82.976562 157.8125 82.382812 L 133.152344 82.382812 C 129.40625 82.382812 126.445312 79.226562 126.445312 75.675781 C 126.445312 71.929688 129.601562 68.96875 133.152344 68.96875 L 180.101562 68.96875 C 183.851562 68.96875 186.808594 65.8125 186.808594 62.261719 C 186.808594 59.105469 184.640625 56.542969 181.679688 55.753906 L 181.878906 55.554688 L 153.472656 55.554688 C 149.722656 55.554688 146.765625 52.398438 146.765625 48.847656 C 146.765625 45.101562 149.921875 42.140625 153.472656 42.140625 L 216.992188 42.140625 C 229.023438 39.183594 241.847656 37.605469 254.867188 37.605469 C 294.320312 37.605469 325.09375 45.890625 354.878906 67.984375 C 357.640625 69.957031 359.21875 72.914062 359.613281 76.269531 C 360.007812 79.621094 359.023438 82.777344 356.851562 85.539062 L 333.574219 113.550781 C 329.433594 118.484375 322.132812 119.46875 317.003906 115.523438 C 297.871094 101.320312 278.539062 94.21875 252.894531 94.21875 C 207.324219 94.21875 172.605469 134.855469 172.605469 181.605469 C 172.605469 232.5 206.140625 271.363281 257.429688 271.363281 C 277.550781 271.363281 294.910156 267.023438 309.507812 258.34375 C 313.257812 256.171875 315.425781 252.226562 315.425781 247.886719 L 315.425781 223.03125 C 315.425781 216.324219 309.902344 210.800781 303.195312 210.800781 L 265.519531 210.800781 C 258.8125 210.800781 253.289062 205.277344 253.289062 198.570312 L 253.289062 169.773438 C 253.289062 163.066406 258.8125 157.542969 265.519531 157.542969 L 362.769531 157.542969 C 369.476562 157.542969 375 163.066406 375 169.773438 L 375 273.335938 C 375 277.082031 373.421875 280.4375 370.460938 282.804688 C 357.050781 293.457031 341.464844 302.726562 323.710938 310.421875 C 303.589844 319.296875 280.90625 323.636719 255.261719 323.636719 Z M 100.011719 310.027344 L 152.089844 310.027344 C 155.839844 310.027344 158.796875 313.183594 158.796875 316.734375 C 158.796875 320.480469 155.640625 323.441406 152.089844 323.441406 L 100.011719 323.441406 C 96.265625 323.441406 93.304688 320.285156 93.304688 316.734375 C 93.109375 312.984375 96.265625 310.027344 100.011719 310.027344 Z M 27.222656 255.582031 L 41.621094 255.582031 C 45.371094 255.582031 48.328125 258.738281 48.328125 262.289062 C 48.328125 266.035156 45.171875 268.996094 41.621094 268.996094 L 27.222656 268.996094 C 23.472656 268.996094 20.515625 265.839844 20.515625 262.289062 C 20.515625 258.539062 23.472656 255.582031 27.222656 255.582031 Z M 65.492188 255.582031 L 92.320312 255.582031 C 96.066406 255.582031 99.027344 258.738281 99.027344 262.289062 C 99.027344 266.035156 95.871094 268.996094 92.320312 268.996094 L 65.492188 268.996094 C 61.742188 268.996094 58.785156 265.839844 58.785156 262.289062 C 58.785156 258.539062 61.742188 255.582031 65.492188 255.582031 Z M 48.132812 146.890625 L 74.367188 146.890625 C 78.117188 146.890625 81.074219 150.046875 81.074219 153.597656 C 81.074219 157.34375 77.917969 160.304688 74.367188 160.304688 L 48.132812 160.304688 C 44.382812 160.304688 41.425781 157.148438 41.425781 153.597656 C 41.425781 149.847656 44.382812 146.890625 48.132812 146.890625 Z M 6.707031 173.914062 L 66.082031 173.914062 C 69.832031 173.914062 72.789062 177.070312 72.789062 180.621094 C 72.789062 184.367188 69.832031 187.328125 66.082031 187.328125 L 6.707031 187.328125 C 2.957031 187.328125 0 184.171875 0 180.621094 C 0 177.070312 3.15625 173.914062 6.707031 173.914062 Z M 88.175781 65.617188 L 113.820312 65.617188 C 117.570312 65.617188 120.527344 68.773438 120.527344 72.324219 C 120.527344 76.070312 117.371094 79.03125 113.820312 79.03125 L 88.175781 79.03125 C 84.429688 79.03125 81.46875 75.875 81.46875 72.324219 C 81.46875 68.773438 84.429688 65.617188 88.175781 65.617188 Z M 126.445312 38.589844 L 136.507812 38.589844 C 140.253906 38.589844 143.214844 41.746094 143.214844 45.296875 C 143.214844 49.046875 140.058594 52.003906 136.507812 52.003906 L 126.445312 52.003906 C 122.699219 52.003906 119.738281 48.847656 119.738281 45.296875 C 119.738281 41.550781 122.699219 38.589844 126.445312 38.589844 Z M 73.382812 92.445312 L 105.140625 92.445312 C 108.890625 92.445312 111.847656 95.601562 111.847656 99.152344 C 111.847656 102.898438 108.691406 105.859375 105.140625 105.859375 L 73.382812 105.859375 C 69.632812 105.859375 66.675781 102.703125 66.675781 99.152344 C 66.476562 95.601562 69.632812 92.445312 73.382812 92.445312 Z M 73.382812 92.445312 " fill-opacity="1" fill-rule="evenodd"/></g></svg>